<?xml version="1.0" ?><svg id="catadd" style="enable-background:new 0 0 300 300;" version="1.1" viewBox="0 0 300 300" xml:space="preserve" xmlns="http://www.w3.org/2000/svg" xmlns:xlink="http://www.w3.org/1999/xlink"><g><path d="   M203.152,50.384C187.131,42.456,169.086,38,150,38C83.726,38,30,91.726,30,158s53.726,120,120,120s120-53.726,120-120   c0-18.284-4.089-35.612-11.403-51.121" style="fill-rule:evenodd;clip-rule:evenodd;fill:none;stroke:#361500;stroke-width:8;stroke-linecap:round;stroke-linejoin:round;stroke-miterlimit:10;"/><path d="   M163.126,119.763C159.015,118.621,154.598,118,150,118c-5.108,0-9.994,0.766-14.485,2.162c-2.326-4.88-8.688-17.237-15.633-22.162   c0,0-7.278,19.104-5.643,37.648C111.527,139.964,110,144.839,110,150c0,14.728,12.437,27.132,29.367,30.857   C122.437,190.17,110,221.18,110,258c0,4.554,0.19,9.02,0.556,13.367C122.91,275.664,136.182,278,150,278s27.09-2.336,39.444-6.633   C189.81,267.02,190,262.554,190,258c0-36.82-12.437-67.83-29.368-77.143C177.563,177.132,190,164.728,190,150   c0-5.994-2.06-11.603-5.644-16.398C185.32,115.725,178.568,98,178.568,98C171.805,102.796,165.595,114.638,163.126,119.763z" style="fill-rule:evenodd;clip-rule:evenodd;fill:none;stroke:#000000;stroke-width:8;stroke-linecap:round;stroke-linejoin:round;stroke-miterlimit:10;"/><circle cx="238" cy="70" r="40" style="fill-rule:evenodd;clip-rule:evenodd;fill:none;stroke:#000000;stroke-width:8;stroke-linecap:round;stroke-linejoin:round;stroke-miterlimit:10;"/><line style="fill:none;stroke:#000000;stroke-width:8;stroke-linecap:round;stroke-linejoin:round;stroke-miterlimit:10;" x1="238" x2="238" y1="94" y2="46"/><line style="fill:none;stroke:#000000;stroke-width:8;stroke-linecap:round;stroke-linejoin:round;stroke-miterlimit:10;" x1="214" x2="262" y1="70" y2="70"/></g><g/><g/><g/><g/><g/><g/><g/><g/><g/><g/><g/><g/><g/><g/><g/></svg>