<?xml version="1.0" standalone="no"?>
<!DOCTYPE svg PUBLIC "-//W3C//DTD SVG 20010904//EN"
 "http://www.w3.org/TR/2001/REC-SVG-20010904/DTD/svg10.dtd">
<svg version="1.0" xmlns="http://www.w3.org/2000/svg"
 width="2133.000000pt" height="2133.000000pt" viewBox="0 0 2133.000000 2133.000000"
 preserveAspectRatio="xMidYMid meet">

<g transform="translate(0.000000,2133.000000) scale(0.100000,-0.100000)"
fill="#000000" stroke="none">
<path d="M10082 20589 c-342 -18 -851 -77 -1157 -133 -44 -8 -131 -24 -193
-36 -479 -88 -1154 -279 -1607 -455 -216 -84 -310 -122 -464 -190 -922 -403
-1742 -928 -2501 -1599 -159 -141 -553 -533 -701 -696 -401 -446 -753 -926
-1057 -1445 -135 -230 -355 -663 -446 -875 -31 -74 -61 -144 -66 -155 -62
-139 -218 -576 -277 -775 -112 -381 -199 -764 -252 -1120 -36 -244 -41 -283
-63 -510 -20 -200 -23 -281 -22 -735 0 -458 2 -533 22 -735 49 -482 111 -840
218 -1265 94 -373 252 -851 374 -1130 202 -465 318 -698 517 -1039 132 -225
329 -527 469 -716 117 -158 129 -174 233 -305 209 -261 369 -441 611 -689 149
-152 424 -412 522 -493 25 -21 117 -97 205 -169 87 -72 226 -182 308 -244 83
-62 157 -119 166 -127 15 -12 12 -24 -27 -131 -423 -1153 -919 -2116 -1398
-2712 -206 -257 -365 -414 -586 -580 -238 -179 -338 -323 -328 -473 9 -145
106 -246 288 -302 74 -23 403 -32 575 -16 833 79 2024 431 3060 905 225 104
604 297 764 390 62 36 115 66 117 66 10 0 287 175 432 273 352 236 621 455
896 729 l189 189 51 -10 c61 -12 277 -44 431 -65 650 -88 1504 -101 2235 -36
666 60 1440 217 2080 422 367 117 790 280 1075 413 53 25 99 45 101 45 11 0
452 225 574 293 1086 603 2001 1369 2755 2307 772 961 1332 2087 1614 3243 27
111 51 213 54 227 3 14 17 82 31 151 14 70 34 187 46 260 11 74 25 159 30 189
5 30 18 138 30 240 145 1329 -31 2647 -523 3906 -648 1657 -1866 3125 -3447
4156 -302 197 -604 369 -960 546 -936 467 -1877 759 -2985 927 -95 14 -338 41
-580 64 -307 30 -1062 40 -1433 20z m1068 -415 c30 -2 127 -8 215 -14 296 -20
679 -66 950 -115 278 -51 366 -69 610 -126 893 -211 1816 -589 2618 -1071
1288 -775 2351 -1853 3065 -3108 502 -883 827 -1839 963 -2835 50 -367 63
-579 63 -1035 0 -453 -6 -573 -55 -970 -128 -1047 -486 -2086 -1046 -3033
-244 -413 -552 -836 -898 -1234 -169 -194 -609 -635 -805 -805 -685 -595
-1450 -1085 -2262 -1447 -27 -11 -69 -31 -95 -42 -27 -12 -86 -38 -133 -57
-605 -248 -1142 -412 -1769 -538 -385 -77 -679 -119 -1146 -161 -164 -15 -300
-18 -760 -18 -376 0 -604 4 -695 13 -74 7 -166 15 -205 18 -89 7 -369 40 -505
60 -107 15 -482 81 -511 90 -11 3 -36 -20 -77 -69 -597 -722 -1617 -1384
-2932 -1902 -542 -213 -1091 -382 -1640 -505 -172 -39 -424 -83 -570 -100 -52
-6 -108 -13 -125 -15 -81 -11 -295 -17 -295 -8 0 5 30 31 68 59 541 396 1098
1172 1587 2214 102 218 242 537 322 735 64 158 244 633 269 710 7 22 29 85 48
139 20 55 36 100 36 101 0 1 -26 20 -58 42 -192 132 -329 232 -475 345 -979
761 -1771 1700 -2318 2743 -98 186 -279 564 -279 582 0 3 -6 19 -14 36 -22 47
-44 102 -78 192 -17 44 -39 103 -50 130 -101 258 -240 738 -313 1080 -116 548
-166 1030 -166 1615 1 396 27 797 71 1075 5 33 16 107 25 165 91 588 300 1302
542 1850 8 19 21 49 28 65 8 17 23 53 35 80 86 195 258 521 416 785 385 646
872 1254 1417 1771 575 545 1154 969 1862 1363 131 73 485 252 605 305 269
121 275 124 590 246 134 53 536 186 720 239 276 80 571 148 975 226 119 23
483 75 595 85 36 3 103 10 150 15 131 15 347 29 545 36 99 4 182 9 185 12 5 5
596 -7 700 -14z"/>
<path d="M9196 15729 c-220 -29 -393 -117 -552 -281 -158 -163 -250 -342 -311
-603 -28 -122 -25 -511 4 -645 47 -208 134 -418 240 -578 67 -101 229 -272
323 -342 299 -222 672 -271 980 -129 199 93 385 285 484 501 179 388 178 851
-3 1273 -190 445 -537 739 -946 800 -110 16 -119 16 -219 4z m255 -440 c249
-74 480 -343 575 -668 96 -329 57 -663 -104 -898 -214 -311 -598 -311 -890 1
-162 174 -260 386 -297 648 -19 131 -19 198 0 323 30 198 98 348 211 462 143
146 311 190 505 132z"/>
<path d="M11880 15734 c-14 -2 -58 -9 -98 -15 -132 -19 -279 -78 -408 -164
-308 -206 -535 -570 -615 -990 -33 -173 -33 -434 0 -590 55 -261 152 -455 310
-619 127 -131 245 -204 408 -252 107 -31 273 -42 383 -25 488 76 902 524 1030
1116 27 125 39 445 21 564 -43 273 -152 509 -316 680 -122 127 -237 202 -385
249 -108 34 -266 57 -330 46z m180 -436 c141 -43 268 -156 343 -308 80 -164
92 -222 92 -460 0 -193 -2 -211 -28 -304 -174 -625 -714 -931 -1070 -606 -190
174 -282 496 -232 820 40 263 150 494 316 660 176 177 397 252 579 198z"/>
<path d="M13782 13929 c-300 -69 -576 -270 -770 -559 -164 -246 -245 -507
-245 -790 1 -300 83 -511 272 -700 103 -103 189 -156 321 -198 264 -86 583
-26 855 158 591 402 808 1242 455 1760 -44 64 -153 171 -223 219 -70 48 -166
89 -260 111 -109 26 -289 26 -405 -1z m381 -431 c76 -36 160 -120 197 -200 44
-95 60 -170 60 -285 0 -417 -306 -839 -676 -933 -253 -65 -452 49 -535 307
-32 99 -31 294 1 413 53 195 137 344 270 480 174 178 332 252 525 247 84 -2
109 -7 158 -29z"/>
<path d="M7190 13684 c-350 -69 -598 -321 -680 -691 -31 -136 -31 -346 -1
-488 76 -360 278 -684 556 -893 102 -76 290 -167 410 -198 132 -33 330 -35
445 -5 448 119 697 550 630 1090 -60 472 -398 931 -819 1110 -135 57 -214 74
-371 77 -80 1 -156 0 -170 -2z m285 -430 c127 -31 297 -140 399 -258 176 -203
266 -429 266 -673 0 -270 -121 -457 -330 -508 -325 -80 -749 256 -869 686
-106 383 29 712 314 764 76 14 127 11 220 -11z"/>
<path d="M10519 12490 c-585 -57 -1099 -280 -1487 -645 -91 -86 -208 -221
-271 -313 -36 -54 -51 -65 -146 -116 -436 -231 -746 -549 -874 -898 -49 -132
-56 -176 -56 -363 0 -174 1 -183 33 -288 97 -324 321 -598 687 -842 385 -256
970 -466 1520 -545 44 -6 107 -15 140 -20 33 -5 114 -14 180 -20 668 -58 1282
-10 1871 145 564 149 1041 400 1349 709 281 283 406 574 392 911 -13 294 -129
544 -367 789 -166 171 -346 304 -574 426 -78 42 -103 61 -128 99 -129 189
-329 389 -533 532 -303 213 -696 364 -1105 424 -123 19 -505 28 -631 15z m482
-420 c313 -31 606 -124 876 -279 145 -83 235 -151 356 -270 117 -114 178 -188
242 -294 l47 -77 139 -71 c655 -332 918 -782 709 -1214 -308 -638 -1531 -1082
-2822 -1025 -1143 51 -2106 465 -2378 1025 -56 115 -74 188 -73 300 4 333 284
662 779 913 137 69 143 73 172 125 48 84 150 215 237 302 308 309 762 516
1235 564 122 12 361 13 481 1z"/>
</g>
</svg>
