<?xml version="1.0" standalone="no"?>
<!DOCTYPE svg PUBLIC "-//W3C//DTD SVG 20010904//EN"
 "http://www.w3.org/TR/2001/REC-SVG-20010904/DTD/svg10.dtd">
<svg version="1.0" xmlns="http://www.w3.org/2000/svg"
 width="643.000000pt" height="641.000000pt" viewBox="0 0 643.000000 641.000000"
 preserveAspectRatio="xMidYMid meet">

<g transform="translate(0.000000,641.000000) scale(0.100000,-0.100000)"
fill="#000000" stroke="none">
<path d="M3026 5960 c-242 -38 -468 -159 -648 -348 -89 -93 -153 -186 -233
-337 -32 -60 -59 -111 -59 -112 -1 0 -136 -11 -300 -22 -165 -11 -301 -22
-302 -24 -2 -2 -10 -64 -18 -138 -9 -73 -25 -163 -36 -199 -32 -98 -143 -322
-270 -540 -436 -754 -457 -793 -442 -824 5 -12 34 -49 65 -83 43 -49 57 -73
66 -115 20 -90 30 -440 36 -1248 3 -426 8 -821 11 -877 l6 -103 2309 0 c1839
0 2310 3 2314 13 2 6 9 457 15 1002 10 951 17 1170 41 1244 6 18 38 62 70 98
35 38 59 74 59 87 0 26 -154 305 -370 671 -297 504 -361 650 -382 869 -6 69
-15 130 -18 136 -4 6 -127 15 -301 23 l-294 12 -71 137 c-87 166 -140 242
-239 341 -162 161 -369 271 -607 323 -87 19 -319 27 -402 14z m405 -184 c165
-38 305 -122 465 -281 163 -162 239 -283 280 -444 76 -300 20 -572 -166 -806
-67 -84 -213 -223 -289 -274 -84 -57 -229 -125 -316 -147 -103 -26 -294 -24
-400 5 -207 56 -422 204 -577 399 -293 369 -293 787 1 1154 171 214 384 357
601 404 81 17 306 11 401 -10z m-1412 -830 c25 -23 29 -87 6 -110 -23 -23 -68
-28 -217 -24 -157 4 -178 13 -178 78 0 68 37 80 227 77 122 -2 144 -5 162 -21z
m2715 14 c47 -10 56 -22 56 -78 0 -65 -31 -74 -220 -70 -167 3 -190 12 -190
73 0 40 17 63 55 74 40 12 249 13 299 1z m-2885 -330 c35 -5 65 -11 67 -13 5
-5 -59 -231 -161 -564 -41 -134 -93 -309 -115 -390 -43 -158 -72 -218 -123
-257 -92 -70 -232 -104 -357 -86 -73 10 -182 50 -212 78 -44 38 -7 124 227
527 301 520 384 651 431 682 49 32 131 40 243 23z m2997 -23 c29 -30 546 -931
615 -1069 52 -105 49 -119 -38 -166 -157 -83 -327 -81 -466 5 -93 57 -125 105
-158 232 -11 42 -73 254 -139 471 -149 499 -154 516 -146 536 6 15 22 16 164
10 103 -4 161 -11 168 -19z m-2601 -437 c33 -46 117 -143 186 -216 80 -84 138
-155 160 -196 30 -56 34 -71 34 -139 -1 -105 -29 -159 -111 -215 -90 -60 -188
-89 -304 -89 -91 0 -99 2 -180 41 -145 70 -230 151 -230 220 0 42 88 359 232
829 l30 100 62 -126 c33 -69 88 -163 121 -209z m2137 268 c9 -29 45 -152 81
-273 82 -274 122 -435 138 -547 12 -79 11 -90 -6 -128 -24 -53 -73 -95 -154
-133 -56 -27 -79 -31 -171 -35 -120 -5 -189 6 -264 44 -149 75 -233 204 -207
319 16 70 61 134 183 256 135 134 205 231 298 407 41 78 77 142 81 142 3 0 13
-24 21 -52z m-1420 -769 c173 -34 288 -36 466 -5 85 15 162 24 172 21 27 -9
33 -36 21 -101 -20 -106 -75 -173 -186 -226 -79 -36 -161 -51 -257 -46 -64 4
-91 11 -152 42 -89 44 -177 120 -205 179 -23 48 -28 126 -9 145 16 16 31 15
150 -9z m-1176 -379 c140 -103 272 -143 474 -144 148 -1 171 7 343 123 59 39
110 71 114 71 4 0 37 -23 73 -50 129 -101 267 -143 470 -144 148 -1 171 7 343
123 59 39 109 71 112 71 4 0 43 -27 88 -59 134 -98 263 -135 462 -136 114 0
123 2 185 31 36 17 109 61 162 97 52 37 99 67 102 67 3 0 49 -29 100 -64 133
-91 235 -121 481 -144 l80 -7 3 -992 2 -993 -1288 0 -1289 0 -6 197 c-4 108
-7 309 -7 447 0 138 -3 457 -7 709 l-6 457 -732 0 -732 0 -6 -427 c-4 -236 -7
-534 -7 -664 0 -130 -3 -344 -7 -477 l-6 -242 -119 0 -118 0 0 999 0 999 153
4 c189 6 233 20 384 123 59 41 113 74 119 74 6 1 42 -22 80 -49z m139 -532
c-27 -23 -82 -74 -121 -113 -92 -90 -99 -117 -84 -320 5 -77 10 -146 10 -152
0 -10 86 -13 398 -13 l399 0 6 107 c18 287 13 302 -139 435 -57 50 -104 92
-104 94 0 2 77 4 170 4 l170 0 0 -830 0 -830 -585 0 -585 0 0 830 0 830 258 0
257 -1 -50 -41z m243 -54 c45 -31 9 -71 -56 -60 -47 7 -57 25 -30 53 25 27 55
29 86 7z m162 -247 c40 -14 58 -55 41 -99 -16 -41 -66 -50 -271 -46 -204 3
-220 9 -220 78 0 41 20 66 60 73 56 10 356 5 390 -6z"/>
<path d="M2751 5541 c-42 -42 -53 -169 -25 -276 19 -77 38 -105 69 -105 46 0
60 40 60 170 0 124 -19 201 -55 220 -25 13 -27 13 -49 -9z"/>
<path d="M3001 5541 c-56 -56 -52 -268 5 -356 22 -34 59 -33 81 2 15 22 18 49
18 143 0 124 -19 201 -55 220 -25 13 -27 13 -49 -9z"/>
<path d="M3251 5541 c-56 -56 -52 -268 5 -356 22 -34 59 -33 81 2 15 22 18 49
18 143 0 124 -19 201 -55 220 -25 13 -27 13 -49 -9z"/>
<path d="M2644 5050 c-225 -10 -238 -12 -255 -53 -36 -84 7 -326 95 -534 54
-127 101 -203 205 -327 l74 -88 291 5 c200 3 304 9 331 18 28 9 66 39 125 100
100 102 129 118 228 131 93 11 154 40 212 98 62 61 93 129 94 205 1 80 -31
135 -127 213 -71 58 -111 106 -138 167 -21 44 -57 56 -197 66 -146 10 -687 9
-938 -1z m748 -170 c213 -10 234 -18 230 -75 -8 -97 -122 -381 -192 -478 -17
-24 -50 -55 -73 -68 -41 -23 -49 -24 -247 -24 -229 0 -273 9 -343 66 -48 40
-121 187 -178 360 -48 145 -47 173 6 198 57 28 459 39 797 21z m453 -204 c9
-14 19 -49 22 -78 5 -47 2 -57 -18 -80 -31 -34 -86 -53 -107 -36 -18 16 -8
115 18 176 15 33 24 42 44 42 16 0 32 -9 41 -24z"/>
<path d="M3666 3025 c-117 -48 -162 -125 -154 -264 6 -99 39 -173 114 -251 53
-56 139 -110 173 -110 25 0 133 54 169 85 53 44 75 98 76 185 1 66 -3 83 -33
144 -22 45 -56 92 -97 133 -111 110 -144 121 -248 78z m113 -171 c85 -50 123
-235 55 -266 -83 -38 -194 143 -151 245 13 29 21 37 42 37 15 0 39 -7 54 -16z"/>
<path d="M4335 3006 c-101 -47 -176 -154 -198 -279 -9 -55 -8 -75 8 -133 16
-59 26 -77 75 -126 94 -94 157 -97 270 -11 199 149 236 363 88 500 -87 79
-152 92 -243 49z m140 -161 c65 -64 -6 -236 -111 -269 -33 -10 -64 35 -64 91
0 76 38 143 105 184 38 24 41 24 70 -6z"/>
<path d="M3216 2506 c-52 -19 -111 -79 -143 -144 -35 -71 -29 -135 20 -236 49
-98 115 -158 204 -186 74 -23 106 -25 167 -9 82 20 147 96 162 187 13 83 -47
214 -138 303 -83 80 -192 114 -272 85z m155 -187 c58 -41 96 -167 64 -215 -14
-22 -22 -25 -51 -21 -47 8 -91 41 -125 95 -74 117 6 217 112 141z"/>
<path d="M4784 2502 c-159 -55 -269 -266 -224 -428 18 -64 81 -128 140 -144
160 -43 384 123 415 307 18 109 -65 234 -176 267 -66 20 -92 20 -155 -2z m145
-188 c26 -34 26 -57 0 -111 -26 -54 -76 -93 -127 -100 -85 -11 -105 40 -56
143 30 64 71 94 126 94 28 0 42 -6 57 -26z"/>
<path d="M3984 2340 c-39 -5 -82 -14 -97 -19 -54 -21 -149 -187 -173 -303 -16
-78 -51 -139 -136 -239 -114 -136 -152 -210 -152 -299 0 -69 29 -131 93 -200
45 -48 50 -50 99 -50 28 0 113 13 189 29 235 49 344 48 619 -3 95 -18 135 -21
171 -15 162 31 211 234 103 424 -16 28 -63 88 -105 135 -89 99 -121 160 -134
251 -12 87 -38 135 -105 197 -92 84 -208 112 -372 92z m224 -189 c44 -22 66
-65 101 -189 27 -100 70 -174 152 -267 95 -107 121 -159 117 -233 -3 -56 -3
-57 -33 -56 -16 0 -64 8 -105 18 -104 23 -506 34 -669 16 -66 -6 -129 -9 -140
-5 -58 18 -25 114 79 230 125 140 164 208 173 303 10 98 64 180 133 202 43 14
148 4 192 -19z"/>
<path d="M1593 1958 c-33 -16 -48 -60 -31 -94 33 -71 168 -72 204 -2 14 27 14
32 -1 55 -30 45 -119 67 -172 41z"/>
</g>
</svg>
