<?xml version="1.0" standalone="no"?>
<!DOCTYPE svg PUBLIC "-//W3C//DTD SVG 20010904//EN"
 "http://www.w3.org/TR/2001/REC-SVG-20010904/DTD/svg10.dtd">
<svg version="1.0" xmlns="http://www.w3.org/2000/svg"
 width="512.000000pt" height="512.000000pt" viewBox="0 0 512.000000 512.000000"
 preserveAspectRatio="xMidYMid meet">

<g transform="translate(0.000000,512.000000) scale(0.100000,-0.100000)"
fill="#361500" stroke="none">
<path d="M1247 4902 l-57 -58 0 -400 0 -400 58 -57 58 -57 154 0 154 0 58 57
58 57 0 401 0 401 -58 57 -58 57 -155 0 -155 0 -57 -58z m325 -99 c17 -15 18
-39 18 -356 0 -303 -2 -342 -17 -359 -13 -15 -32 -18 -111 -18 -143 0 -132
-33 -132 380 0 256 3 349 12 358 8 8 47 12 112 12 78 0 103 -3 118 -17z"/>
<path d="M3427 4902 l-57 -58 0 -400 0 -400 58 -57 58 -57 154 0 154 0 58 57
58 57 0 401 0 401 -58 57 -58 57 -155 0 -155 0 -57 -58z m325 -99 c17 -15 18
-39 18 -356 0 -303 -2 -342 -17 -359 -13 -15 -32 -18 -111 -18 -143 0 -132
-33 -132 380 0 256 3 349 12 358 8 8 47 12 112 12 78 0 103 -3 118 -17z"/>
<path d="M375 4508 c-3 -7 -4 -240 -3 -518 l3 -505 2175 0 2175 0 0 515 0 515
-347 3 -348 2 0 -70 0 -70 278 -2 277 -3 0 -375 0 -375 -2035 0 -2035 0 0 375
0 375 278 3 277 2 0 70 0 70 -345 0 c-267 0 -347 -3 -350 -12z"/>
<path d="M1850 4450 l0 -70 700 0 700 0 0 70 0 70 -700 0 -700 0 0 -70z"/>
<path d="M2360 4000 l0 -70 70 0 70 0 0 70 0 70 -70 0 -70 0 0 -70z"/>
<path d="M2600 4000 l0 -70 70 0 70 0 0 70 0 70 -70 0 -70 0 0 -70z"/>
<path d="M377 3363 c-4 -3 -7 -726 -7 -1605 l0 -1598 2178 2 2177 3 0 1600 0
1600 -67 3 -68 3 -2 -1533 -3 -1533 -2035 0 -2035 0 -3 1533 -2 1532 -63 0
c-35 0 -67 -3 -70 -7z"/>
<path d="M2793 2518 l-583 -583 -245 245 -245 245 -283 -283 -282 -282 528
-527 527 -528 867 867 868 868 -280 280 c-154 154 -282 280 -285 280 -3 0
-267 -262 -587 -582z m772 202 l180 -180 -768 -768 -767 -767 -427 428 -428
427 183 182 182 183 245 -245 245 -245 583 583 c320 320 584 582 587 582 3 0
86 -81 185 -180z"/>
</g>
</svg>
